<svg width="55" height="34" viewBox="0 0 55 34" fill="none" xmlns="http://www.w3.org/2000/svg">
<rect x="0.75" width="54.25" height="34" rx="17" fill="#AEAEAE"/>
<path fill-rule="evenodd" clip-rule="evenodd" d="M23.34 6.066C24.513 6.012 24.887 6 27.875 6C30.863 6 31.237 6.013 32.409 6.066C33.581 6.119 34.381 6.306 35.081 6.577C35.814 6.854 36.479 7.287 37.029 7.847C37.589 8.396 38.021 9.06 38.297 9.794C38.569 10.494 38.755 11.294 38.809 12.464C38.863 13.639 38.875 14.013 38.875 17C38.875 19.988 38.862 20.362 38.809 21.535C38.756 22.705 38.569 23.505 38.297 24.205C38.021 24.9391 37.5883 25.6042 37.029 26.154C36.479 26.714 35.814 27.146 35.081 27.422C34.381 27.694 33.581 27.88 32.411 27.934C31.237 27.988 30.863 28 27.875 28C24.887 28 24.513 27.987 23.34 27.934C22.17 27.881 21.37 27.694 20.67 27.422C19.9359 27.146 19.2708 26.7133 18.721 26.154C18.1614 25.6047 17.7283 24.9399 17.452 24.206C17.181 23.506 16.995 22.706 16.941 21.536C16.887 20.361 16.875 19.987 16.875 17C16.875 14.012 16.888 13.638 16.941 12.466C16.994 11.294 17.181 10.494 17.452 9.794C17.7287 9.06008 18.1621 8.39531 18.722 7.846C19.271 7.2865 19.9355 6.85344 20.669 6.577C21.369 6.306 22.169 6.12 23.339 6.066H23.34ZM32.32 8.046C31.16 7.993 30.812 7.982 27.875 7.982C24.938 7.982 24.59 7.993 23.43 8.046C22.357 8.095 21.775 8.274 21.387 8.425C20.874 8.625 20.507 8.862 20.122 9.247C19.757 9.60205 19.4762 10.0343 19.3 10.512C19.149 10.9 18.97 11.482 18.921 12.555C18.868 13.715 18.857 14.063 18.857 17C18.857 19.937 18.868 20.285 18.921 21.445C18.97 22.518 19.149 23.1 19.3 23.488C19.476 23.965 19.757 24.398 20.122 24.753C20.477 25.118 20.91 25.399 21.387 25.575C21.775 25.726 22.357 25.905 23.43 25.954C24.59 26.007 24.937 26.018 27.875 26.018C30.813 26.018 31.16 26.007 32.32 25.954C33.393 25.905 33.975 25.726 34.363 25.575C34.876 25.375 35.243 25.138 35.628 24.753C35.993 24.398 36.274 23.965 36.45 23.488C36.601 23.1 36.78 22.518 36.829 21.445C36.882 20.285 36.893 19.937 36.893 17C36.893 14.063 36.882 13.715 36.829 12.555C36.78 11.482 36.601 10.9 36.45 10.512C36.25 9.999 36.013 9.632 35.628 9.247C35.2729 8.88207 34.8407 8.60121 34.363 8.425C33.975 8.274 33.393 8.095 32.32 8.046ZM26.47 20.391C27.2547 20.7176 28.1284 20.7617 28.9419 20.5157C29.7555 20.2697 30.4584 19.7489 30.9306 19.0422C31.4028 18.3356 31.6151 17.4869 31.531 16.6411C31.447 15.7953 31.072 15.005 30.47 14.405C30.0862 14.0215 29.6222 13.7278 29.1113 13.5451C28.6005 13.3625 28.0554 13.2954 27.5155 13.3486C26.9756 13.4019 26.4542 13.5742 25.9888 13.8531C25.5235 14.1321 25.1257 14.5107 24.8243 14.9619C24.5229 15.413 24.3252 15.9253 24.2455 16.462C24.1658 16.9986 24.2062 17.5463 24.3635 18.0655C24.5209 18.5847 24.7915 19.0626 25.1557 19.4647C25.52 19.8668 25.9688 20.1832 26.47 20.391ZM23.877 13.002C24.402 12.477 25.0253 12.0605 25.7113 11.7764C26.3973 11.4922 27.1325 11.346 27.875 11.346C28.6175 11.346 29.3527 11.4922 30.0387 11.7764C30.7247 12.0605 31.348 12.477 31.873 13.002C32.398 13.527 32.8145 14.1503 33.0986 14.8363C33.3828 15.5223 33.529 16.2575 33.529 17C33.529 17.7425 33.3828 18.4777 33.0986 19.1637C32.8145 19.8497 32.398 20.473 31.873 20.998C30.8127 22.0583 29.3745 22.654 27.875 22.654C26.3755 22.654 24.9373 22.0583 23.877 20.998C22.8167 19.9377 22.221 18.4995 22.221 17C22.221 15.5005 22.8167 14.0623 23.877 13.002ZM34.783 12.188C34.9131 12.0653 35.0173 11.9177 35.0893 11.754C35.1613 11.5903 35.1998 11.4138 35.2024 11.2349C35.205 11.0561 35.1717 10.8785 35.1045 10.7128C35.0372 10.5471 34.9374 10.3965 34.811 10.27C34.6845 10.1436 34.5339 10.0438 34.3682 9.97652C34.2025 9.90928 34.0249 9.87598 33.8461 9.87858C33.6672 9.88119 33.4907 9.91965 33.327 9.9917C33.1633 10.0637 33.0157 10.1679 32.893 10.298C32.6543 10.551 32.5236 10.8871 32.5287 11.2349C32.5338 11.5827 32.6742 11.9149 32.9202 12.1608C33.1661 12.4068 33.4983 12.5472 33.8461 12.5523C34.1939 12.5574 34.53 12.4267 34.783 12.188Z" fill="#545454"/>
</svg>
