<svg width="55" height="34" viewBox="0 0 55 34" fill="none" xmlns="http://www.w3.org/2000/svg">
<rect x="0.5" width="54.25" height="34" rx="17" fill="#AEAEAE"/>
<path fill-rule="evenodd" clip-rule="evenodd" d="M25.054 13.969H28.768V15.819C29.303 14.755 30.675 13.799 32.736 13.799C36.687 13.799 37.625 15.917 37.625 19.803V27H33.625V20.688C33.625 18.475 33.09 17.227 31.728 17.227C29.839 17.227 29.054 18.572 29.054 20.687V27H25.054V13.969ZM18.195 26.83H22.195V13.799H18.195V26.83ZM22.768 9.55C22.7681 9.88528 22.7017 10.2172 22.5724 10.5266C22.4431 10.8359 22.2537 11.1165 22.015 11.352C21.5314 11.8326 20.8768 12.1017 20.195 12.1C19.5144 12.0995 18.8613 11.8312 18.377 11.353C18.1392 11.1167 17.9504 10.8358 17.8213 10.5264C17.6923 10.217 17.6256 9.88522 17.625 9.55C17.625 8.873 17.895 8.225 18.378 7.747C18.8619 7.26816 19.5152 6.9997 20.196 7C20.878 7 21.532 7.269 22.015 7.747C22.497 8.225 22.768 8.873 22.768 9.55Z" fill="#545454"/>
</svg>
