<svg width="24" height="25" viewBox="0 0 24 25" fill="none" xmlns="http://www.w3.org/2000/svg">
<g clip-path="url(#clip0_613_208)">
<path d="M11.9998 0.500002C9.20187 0.498228 6.49124 1.47422 4.33663 3.25921C2.18202 5.04421 0.718885 7.52599 0.200204 10.2755C-0.318478 13.0249 0.139905 15.8692 1.4961 18.3165C2.85229 20.7638 5.02102 22.6603 7.62732 23.678C7.52232 22.7285 7.42632 21.269 7.66782 20.2325C7.88682 19.295 9.07482 14.267 9.07482 14.267C9.07482 14.267 8.71632 13.5485 8.71632 12.4865C8.71632 10.817 9.68382 9.572 10.8883 9.572C11.9113 9.572 12.4063 10.34 12.4063 11.2625C12.4063 12.2915 11.7508 13.8305 11.4118 15.257C11.1298 16.451 12.0118 17.426 13.1893 17.426C15.3223 17.426 16.9618 15.176 16.9618 11.93C16.9618 9.0575 14.8963 7.049 11.9488 7.049C8.53482 7.049 6.53082 9.6095 6.53082 12.2555C6.53082 13.2875 6.92832 14.393 7.42332 14.9945C7.46595 15.0398 7.49609 15.0955 7.51081 15.1559C7.52554 15.2164 7.52433 15.2796 7.50732 15.3395C7.41582 15.7175 7.21332 16.5335 7.17432 16.7C7.12182 16.919 7.00032 16.9655 6.77232 16.8605C5.27232 16.163 4.33632 13.9715 4.33632 12.2105C4.33632 8.426 7.08732 4.9505 12.2653 4.9505C16.4278 4.9505 19.6633 7.916 19.6633 11.8805C19.6633 16.016 17.0548 19.3445 13.4368 19.3445C12.2203 19.3445 11.0773 18.713 10.6858 17.966L9.93882 20.819C9.66732 21.8615 8.93532 23.168 8.44632 23.9645C10.0963 24.4747 11.8369 24.6227 13.5493 24.3984C15.2617 24.1741 16.9055 23.5829 18.3685 22.6651C19.8314 21.7472 21.079 20.5244 22.026 19.0802C22.9731 17.636 23.5972 16.0044 23.8558 14.2968C24.1144 12.5893 24.0013 10.846 23.5244 9.18613C23.0475 7.52626 22.2179 5.9889 21.0923 4.67906C19.9667 3.36921 18.5717 2.31776 17.0025 1.59652C15.4333 0.875287 13.7268 0.501263 11.9998 0.500002Z" fill="black"/>
</g>
<defs>
<clipPath id="clip0_613_208">
<rect width="24" height="24" fill="white" transform="translate(0 0.5)"/>
</clipPath>
</defs>
</svg>
