<svg width="55" height="34" viewBox="0 0 55 34" fill="none" xmlns="http://www.w3.org/2000/svg">
<rect x="0.25" width="54.25" height="34" rx="17" fill="#AEAEAE"/>
<g clip-path="url(#clip0_613_31)">
<path d="M39.018 9.93708C38.183 10.3071 37.286 10.5571 36.343 10.6701C37.316 10.0879 38.044 9.17154 38.391 8.09208C37.4769 8.63507 36.4764 9.01727 35.433 9.22208C34.7314 8.47294 33.8021 7.9764 32.7893 7.80955C31.7766 7.6427 30.7371 7.81487 29.8322 8.29933C28.9274 8.78379 28.2078 9.55344 27.7852 10.4888C27.3625 11.4241 27.2605 12.4728 27.495 13.4721C25.6427 13.3791 23.8306 12.8976 22.1764 12.059C20.5222 11.2203 19.0629 10.0432 17.893 8.60408C17.493 9.29408 17.263 10.0941 17.263 10.9461C17.2626 11.7131 17.4514 12.4683 17.8129 13.1448C18.1743 13.8213 18.6972 14.3981 19.335 14.8241C18.5953 14.8005 17.8719 14.6007 17.225 14.2411V14.3011C17.2249 15.3768 17.597 16.4195 18.2782 17.2521C18.9593 18.0847 19.9076 18.656 20.962 18.8691C20.2758 19.0548 19.5563 19.0821 18.858 18.9491C19.1555 19.8747 19.735 20.6841 20.5154 21.264C21.2958 21.8439 22.2379 22.1653 23.21 22.1831C21.5598 23.4785 19.5219 24.1812 17.424 24.1781C17.0524 24.1782 16.6811 24.1565 16.312 24.1131C18.4415 25.4823 20.9204 26.2089 23.452 26.2061C32.022 26.2061 36.707 19.1081 36.707 12.9521C36.707 12.7521 36.702 12.5501 36.693 12.3501C37.6043 11.6911 38.3909 10.875 39.016 9.94008L39.018 9.93708Z" fill="#545454"/>
</g>
<defs>
<clipPath id="clip0_613_31">
<rect width="24" height="24" fill="white" transform="translate(15.375 5)"/>
</clipPath>
</defs>
</svg>
