<svg width="13" height="10" viewBox="0 0 13 10" fill="none" xmlns="http://www.w3.org/2000/svg">
<path fill-rule="evenodd" clip-rule="evenodd" d="M6.99979 8.98771C6.99979 9.25288 7.1051 9.50718 7.29257 9.69471C7.4801 9.88218 7.73441 9.9875 7.99957 9.9875C8.26474 9.9875 8.51904 9.88218 8.70657 9.69471L12.7066 5.69471C12.894 5.50718 12.9994 5.25288 12.9994 4.98771C12.9994 4.72255 12.894 4.46824 12.7066 4.28071L8.70657 0.280712C8.51797 0.0985542 8.26537 -0.00224062 8.00317 3.78025e-05C7.74098 0.00231622 7.49016 0.107485 7.30475 0.292894C7.11935 0.478302 7.01418 0.729114 7.0119 0.991311C7.00962 1.25351 7.11041 1.50611 7.29257 1.69471L10.5856 4.98771L7.29257 8.28071C7.1051 8.46824 6.99979 8.72255 6.99979 8.98771ZM0 9C0 9.26516 0.105316 9.51947 0.292787 9.707C0.480314 9.89447 0.734622 9.99979 0.999786 9.99979C1.26495 9.99979 1.51926 9.89447 1.70679 9.707L5.70679 5.707C5.89426 5.51947 5.99957 5.26516 5.99957 5C5.99957 4.73484 5.89426 4.48053 5.70679 4.293L1.70679 0.293C1.51818 0.110842 1.26558 0.0100475 1.00339 0.0123259C0.741189 0.0146043 0.490376 0.119774 0.304968 0.305182C0.11956 0.49059 0.0143906 0.741402 0.0121121 1.0036C0.00983372 1.2658 0.110629 1.5184 0.292787 1.707L3.58579 5L0.292787 8.293C0.105316 8.48053 0 8.73484 0 9Z" fill="#BFC9E2"/>
</svg>
